<svg viewBox="0 0 2048 2048" xmlns="http://www.w3.org/2000/svg">
  <defs>
    <mask id="m">
      <rect width="2048" height="2048" fill="#fff"></rect>
      <path d="M1015.16 1566.33C924.719 1563.67 847.51 1532.91 784.34 1471.39C758.129 1445.86 735.519 1416.3 713.566 1386.87C696.188 1363.57 690.003 1335.67 695.202 1306.64C701.76 1270.01 724.314 1245.34 758.656 1233.24C794.043 1220.76 827.767 1227.35 855.781 1252.59C874.519 1269.47 891.082 1288.79 908.362 1307.25C922.901 1322.79 939.866 1334.81 959.22 1343.49C1047.42 1383.09 1148.38 1335.09 1168.92 1242.74C1180.85 1189.12 1167.53 1140.88 1130.28 1100.24C1077.04 1042.17 1023.05 984.773 969.617 926.877C960.338 916.823 951.11 906.424 943.719 894.986C915.417 851.189 924.582 793.624 963.592 762.092C998.883 733.566 1060.01 729.892 1097.81 770.218C1141.31 816.625 1184.62 863.202 1227.99 909.735C1246.22 929.3 1264.34 948.968 1282.57 968.542C1413.44 1109.12 1407 1358.9 1242.66 1490.56C1176.96 1543.19 1101.47 1567.92 1015.16 1566.33Z" fill="#000"></path>
      <path d="M1220.55 540.422C1268.44 572.19 1303.95 613.821 1335.29 659.252C1353.43 685.535 1359.14 715.075 1351.1 746.001C1331.99 819.479 1241.66 844.123 1187.38 790.757C1168.34 772.038 1151.13 751.458 1132.13 732.701C1104.77 705.702 1070.9 691.423 1032.85 690.303C974.11 688.573 927.057 712.22 896.899 763.281C865.369 816.665 868.944 870.902 900.471 923.289C908.579 936.762 919.259 948.922 930 960.538C977.566 1011.98 1025.64 1062.94 1073.39 1114.22C1083.22 1124.77 1093.42 1135.2 1101.75 1146.9C1143.04 1204.93 1116.98 1284.24 1050.3 1302.56C1010.64 1313.45 975.841 1302.55 947.486 1273.14C918.412 1242.99 890.18 1212.02 861.603 1181.39C830.563 1148.12 799.477 1114.89 768.539 1081.52C644.596 947.843 640.084 719.476 777.479 582.302C889.23 470.731 1067.22 447.862 1202.79 529.111C1208.36 532.45 1213.8 536.02 1220.55 540.422Z" fill="#000"></path>
    </mask>
  </defs>
  <path d="M391 1024C391 674.404 674.404 391 1024 391C1373.6 391 1657 674.404 1657 1024C1657 1373.6 1373.6 1657 1024 1657C674.404 1657 391 1373.6 391 1024Z" fill="#0D2818" mask="url(#m)"></path>
</svg>